# xmcd
#
# Track frame offsets: 
#        150
#        20407
#        43053
#        65135
#        86642
#        109831
#        137501
#        163051
#        185446
#        211237
#        233330
#        253180
#        274005
#        296038
#        315543
#        336528
#
# Disc length: 4793 seconds
#
# Revision: 0
# Processed by: cddbd v1.5.2PL0 Copyright (c) Steve Scherf et al.
# Submitted via: ExactAudioCopy v0.95a5
#
DISCID=ef12b710
DTITLE=Adriano Celentano - Forever Best! CD02
DYEAR=2007
DGENRE=Pop
TTITLE0=Ancora Vivo
TTITLE1=Per Averti
TTITLE2=Ti Prendero
TTITLE3=Mi La Male
TTITLE4=Per Sempre
TTITLE5=Arrivano Gli Uomini
TTITLE6=Le Stesse Cose
TTITLE7=Senza Amore
TTITLE8=Solo Da Un Cuarto Dora
TTITLE9=Jungla Di Citta
TTITLE10=I'uomo Di Cartone
TTITLE11=Lorologio
TTITLE12=Giornata Nein
TTITLE13=Una Parola Non Ci Scappa Mai
TTITLE14=Veronica Verrai
TTITLE15=Confessi
EXTD=
EXTT0=
EXTT1=
EXTT2=
EXTT3=
EXTT4=
EXTT5=
EXTT6=
EXTT7=
EXTT8=
EXTT9=
EXTT10=
EXTT11=
EXTT12=
EXTT13=
EXTT14=
EXTT15=
PLAYORDER=
